<?xml version="1.0" encoding="UTF-8"?><svg id="Warstwa_2" xmlns="http://www.w3.org/2000/svg" viewBox="0 0 483.3 161.51"><defs><style>.cls-1{fill:#fff;stroke:#000;stroke-miterlimit:10;}</style></defs><g id="Warstwa_1-2"><path class="cls-1" d="M.7,114.31v-19.8c0-5.1,.3-5.3,5.5-5.3,4.4,0,8.9-.2,13.3,.1,2.7,.2,3.2-.8,3.1-3.2-.2-4.9,0-9.8-.1-14.7-.1-2.9,1.2-4.1,4.1-4,5.1,.1,10.3-.1,15.4,.1,2,.1,2.5-.6,2.4-2.5-.1-5.2,.1-10.5-.1-15.7-.1-3.2,1.2-4.4,4.4-4.4,12.1,.1,24.2,0,36.3,.1,2.5,0,3.2-.6,3.2-3.2-.2-12.2-.1-24.3-.1-36.5,0-4.2,.5-4.7,4.7-4.8,6.2,0,12.3,.1,18.5,0,3.1-.1,4.3,1.2,4.2,4.3-.1,5.3,0,10.7-.1,16,0,1.8,.5,2.3,2.3,2.3,5.2-.1,10.5,0,15.7-.1,2.7,0,3.9,1.1,3.9,3.9-.1,6.5-.1,13,0,19.5,0,3-1.3,4-4.1,4-12.2-.1-24.4,.1-36.6-.1-2.6,0-3.2,.7-3.1,3.2,.1,12.2,.1,24.3,.1,36.5,0,4.2-.5,4.7-4.8,4.7-4.9,0-9.8,.1-14.7,0-2-.1-2.5,.5-2.5,2.5,.1,5.3,0,10.7,.1,16,.1,2.9-1.1,4.1-4.1,4.1-5.1-.1-10.3,.1-15.4-.1-1.9,0-2.6,.5-2.5,2.4,.1,5.3,0,10.7,.1,16,0,2.9-1.1,4.1-4,4.1-13.8-.1-27.6-.1-41.4,0-2.8,0-3.9-1.2-3.9-3.9,.2-7.2,.2-14.3,.2-21.5Z"/><g><path class="cls-1" d="M147.9,139.51h-36V67.81h36v14.6h-21.4v13.9h21.4v14.6h-21.4v13.9h21.4v14.7Z"/><path class="cls-1" d="M154.6,139.51V67.81h14.6v21.4h21.3v50.2l-7.1,.1h-28.8Zm14.7-14.7h6.7v-21h-6.7v21Z"/><path class="cls-1" d="M212,82.41h-14.6v-14.6h14.6v14.6Zm0,57.1h-14.6v-50.3h14.6v50.3Z"/><path class="cls-1" d="M218.8,139.41V74.91h14.6v14.2h14.2v14.6h-14.2v21h14.2v14.7h-28.8Z"/><path class="cls-1" d="M261.5,139.51h-7.2l.1-7.2v-43.1h36v28.9h-21.4v6.7h21.4v14.7h-28.9Zm7.5-35.7v6.7h6.7v-6.7h-6.7Z"/><path class="cls-1" d="M311.8,139.51h-14.6v-50.3h36v50.3h-14.6v-35.7h-6.8v35.7Z"/><path class="cls-1" d="M368.8,160.91l-28.5,.1v-14.6l20.9-.1v-6.7h-21.4l.1-7.2v-43.1h36v64.6l-.1,7h-7Zm-14.3-36.1h6.7v-21h-6.7v21Z"/><path class="cls-1" d="M397.3,82.41h-14.6v-14.6h14.6v14.6Zm0,57.1h-14.6v-50.3h14.6v50.3Z"/><path class="cls-1" d="M418.7,139.51h-14.6v-50.3h28.9l7.2-.1-.1,7.2v43.2h-14.6v-35.7h-6.7l-.1,35.7h0Z"/><path class="cls-1" d="M453.9,139.51h-7.2l.1-7.2v-36l.1-7,7-.1h21.8l7,.1,.1,7v21.8h-21.4v6.7h21.4v14.7h-28.9Zm7.5-35.7v6.7h6.7v-6.7h-6.7Z"/></g><g><path class="cls-1" d="M162.2,50.61h-7.4V14.11h18.3v3.6h3.6v14.7h-3.6v3.6h-10.9v14.6h0Zm0-29.1v7h7v-7h-7Zm10.9-3.8v-3.6"/><path class="cls-1" d="M184.5,50.61v-3.7h-3.6V28.61h3.6v-3.6h11.1v3.6h3.6v18.3h-3.6v3.7h-11.1Zm3.9-7.5h3.4v-10.7h-3.4v10.7Z"/><path class="cls-1" d="M210.9,43.11h3.4V25.01h7.5v18.1h3.4V25.01h7.5v22h-3.6v3.7h-22v-3.8h-3.6V24.91h7.5l-.1,18.2h0Z"/><path class="cls-1" d="M240.5,50.61v-3.7h-3.7V28.61h3.6v-3.6h11.1v3.6h3.6v11.1h-10.9v3.4h10.9v7.5h-14.6Zm3.8-18.2v3.4h3.4v-3.4h-3.4Z"/><path class="cls-1" d="M266.8,50.61h-7.5V25.01h14.7v7.5h-7.2v18.1Z"/><path class="cls-1" d="M281.9,50.61v-3.7h-3.6V28.61h3.6v-3.6h11.1v3.6h3.6v11.1h-10.9v3.4h10.9v7.5h-14.7Zm0-22h-3.4m7.2,3.8v3.4h3.4v-3.4h-3.4Z"/><path class="cls-1" d="M304.4,50.61l-3.8,.1,.2-3.8V28.61h3.6v-3.6h7.2V14.11h7.5V50.61h-14.7Zm3.9-7.5h3.4v-10.7h-3.4v10.7Z"/><path class="cls-1" d="M335,50.61V14.11h7.5v10.9h10.8v21.9h-3.6v3.7h-14.7Zm7.5-7.5h3.4v-10.7h-3.4v10.7Z"/><path class="cls-1" d="M372.3,61.41h-11.1v-7.5h7.2v-3.4h-7.2v-3.6h-3.6V24.91h7.5v18.1h3.4V24.91h7.5V57.81h-3.6l-.1,3.6h0Z"/></g></g></svg>