<?xml version="1.0" encoding="UTF-8"?><svg id="Warstwa_2" xmlns="http://www.w3.org/2000/svg" viewBox="0 0 481.97 106.97"><defs><style>.cls-1{fill:#db5823;stroke:#000;stroke-miterlimit:10;}</style></defs><g id="Warstwa_2-2"><g id="Warstwa_1-2"><path class="cls-1" d="M1.1,60.2c3.1,0,6.1-.1,9.2,0,1.8,.1,2.1-.5,2.1-2.2-.1-3.4,0-6.9-.1-10.3,0-2,.8-2.7,2.8-2.7,3.4,.1,6.9,0,10.3,0,1.3,0,1.7-.4,1.6-1.7-.1-3.4,0-6.7-.1-10.1-.1-2.2,.8-3,3-3,8.1,.1,16.2,0,24.3,.1,1.7,0,2.2-.4,2.1-2.1-.1-8.2,0-16.4,0-24.5,0-2.8,.3-3.2,3.1-3.2,4.1,0,8.2,.1,12.4,0,2.1,0,2.9,.8,2.8,2.9-.1,3.4,0,6.9-.1,10.3,0,1.2,.4,1.6,1.6,1.5,3.5-.1,7,0,10.5,0,1.8,0,2.6,.8,2.6,2.6,0,4.5-.1,9,0,13.5,0,2-.9,2.7-2.8,2.7-8.2,0-16.3,0-24.5-.1-1.8,0-2.1,.5-2.1,2.2,.1,8.2,0,16.4,0,24.5,0,2.8-.4,3.1-3.2,3.2-3.3,0-6.6,.1-9.8,0-1.3,0-1.7,.4-1.7,1.7,.1,3.6,0,7.2,0,10.8,0,1.9-.8,2.8-2.7,2.7-3.4-.1-6.9,0-10.3,0-1.3,0-1.7,.3-1.7,1.6,.1,3.4,0,6.9,0,10.3,0,1.9-.7,2.8-2.7,2.8H0"/></g><g><path class="cls-1" d="M146.57,84.97h-36V13.27h36v14.6h-21.4v13.9h21.4v14.6h-21.4v13.9h21.4v14.7Z"/><path class="cls-1" d="M153.27,84.97V13.27h14.6v21.4h21.3v50.2l-7.1,.1h-28.8Zm14.7-14.7h6.7v-21h-6.7v21Z"/><path class="cls-1" d="M210.67,27.87h-14.6V13.27h14.6v14.6Zm0,57.1h-14.6V34.67h14.6v50.3Z"/><path class="cls-1" d="M217.47,84.87V20.37h14.6v14.2h14.2v14.6h-14.2v21h14.2v14.7h-28.8Z"/><path class="cls-1" d="M260.17,84.97h-7.2l.1-7.2V34.67h36v28.9h-21.4v6.7h21.4v14.7h-28.9Zm7.5-35.7v6.7h6.7v-6.7h-6.7Z"/><path class="cls-1" d="M310.47,84.97h-14.6V34.67h36v50.3h-14.6V49.27h-6.8v35.7Z"/><path class="cls-1" d="M367.47,106.37l-28.5,.1v-14.6l20.9-.1v-6.7h-21.4l.1-7.2V34.77h36V99.37l-.1,7h-7Zm-14.3-36.1h6.7v-21h-6.7v21Z"/><path class="cls-1" d="M395.97,27.87h-14.6V13.27h14.6v14.6Zm0,57.1h-14.6V34.67h14.6v50.3Z"/><path class="cls-1" d="M417.37,84.97h-14.6V34.67h28.9l7.2-.1-.1,7.2v43.2h-14.6V49.27h-6.7l-.1,35.7h0Z"/><path class="cls-1" d="M452.57,84.97h-7.2l.1-7.2V41.77l.1-7,7-.1h21.8l7,.1,.1,7v21.8h-21.4v6.7h21.4v14.7h-28.9Zm7.5-35.7v6.7h6.7v-6.7h-6.7Z"/></g></g></svg>