<?xml version="1.0" encoding="UTF-8"?><svg id="Warstwa_2" xmlns="http://www.w3.org/2000/svg" viewBox="0 0 481.43 106.18"><defs><style>.cls-1{fill:#da5721;}.cls-2{fill:#db5823;}</style></defs><g id="Warstwa_1-2"><path class="cls-2" d="M1.1,59.7c3.1,0,6.1-.1,9.2,0,1.8,.1,2.1-.5,2.1-2.2-.1-3.4,0-6.9-.1-10.3,0-2,.8-2.7,2.8-2.7,3.4,.1,6.9,0,10.3,0,1.3,0,1.7-.4,1.6-1.7-.1-3.4,0-6.7-.1-10.1-.1-2.2,.8-3,3-3,8.1,.1,16.2,0,24.3,.1,1.7,0,2.2-.4,2.1-2.1-.1-8.2,0-16.4,0-24.5,0-2.8,.3-3.2,3.1-3.2,4.1,0,8.2,.1,12.4,0,2.1,0,2.9,.8,2.8,2.9-.1,3.4,0,6.9-.1,10.3,0,1.2,.4,1.6,1.6,1.5,3.5-.1,7,0,10.5,0,1.8,0,2.6,.8,2.6,2.6,0,4.5-.1,9,0,13.5,0,2-.9,2.7-2.8,2.7-8.2,0-16.3,0-24.5-.1-1.8,0-2.1,.5-2.1,2.2,.1,8.2,0,16.4,0,24.5,0,2.8-.4,3.1-3.2,3.2-3.3,0-6.6,.1-9.8,0-1.3,0-1.7,.4-1.7,1.7,.1,3.6,0,7.2,0,10.8,0,1.9-.8,2.8-2.7,2.7-3.4-.1-6.9,0-10.3,0-1.3,0-1.7,.3-1.7,1.6,.1,3.4,0,6.9,0,10.3,0,1.9-.7,2.8-2.7,2.8H0"/><g><path class="cls-1" d="M146.53,84.78h-36V13.08h36v14.6h-21.4v13.9h21.4v14.6h-21.4v13.9h21.4v14.7Z"/><path class="cls-1" d="M153.23,84.78V13.08h14.6v21.4h14.2l7.03,.07,.07,7.03v36l.1,7.2h-36Zm14.7-14.7h6.7v-21h-6.7v21Z"/><path class="cls-1" d="M210.63,27.68h-14.6V13.08h14.6v14.6Zm0,57.1h-14.6V34.48h14.6v50.3Z"/><path class="cls-1" d="M224.53,84.78v-7.2h-7.1V20.18h14.6v14.2h14.2v14.6h-14.2v21h14.2v14.7h-21.7v.1Zm-7.1-7.2h7.1v7.2h-7.1v-7.2Z"/><path class="cls-1" d="M260.13,84.78v-7.2h-7.1V41.58l.12-6.98,6.98-.12h21.8l7.03,.07,.07,7.03v21.8h-21.4v6.7h21.4v14.7h-28.9Zm-7.1-7.2h7.1v7.2h-7.1v-7.2Zm14.6-28.5v6.7h6.7v-6.7h-6.7Z"/><path class="cls-1" d="M310.43,84.78h-14.6V34.48h28.9v7.1h7.1v43.2h-14.6V49.08h-6.8v35.7Zm14.2-50.3l7.23,.02-.02,7.08h-7.21v-7.1Z"/><path class="cls-1" d="M367.43,106.18h-21.8v-14.6h14.2v-6.7h-14.2v-7.2h-7.1V41.68h7.1v-7.1h28.9V99.18h-7.1v7Zm-28.9-28.6h7.1v7.2h-7.1v-7.2Zm.01-42.99h7.09v7.09h-7.1v-7.09Zm.4,56.89h6.7v14.7h-6.7v-14.7Zm14.2-21.4h6.7v-21h-6.7v21Zm14.3,29h7.1v7.1h-7.1v-7.1Z"/><path class="cls-1" d="M395.93,27.68h-14.6V13.08h14.6v14.6Zm0,57.1h-14.6V34.48h14.6v50.3Z"/><path class="cls-1" d="M417.33,84.78h-14.6V34.48h28.9l7.07,.03,.03,7.07v43.2h-14.6V49.08h-6.7v35.7h-.1Z"/><path class="cls-1" d="M452.53,84.78v-7.2h-7.1V41.58h7.1v-7.1h21.8v7.1h7.1v21.8h-21.4v6.7h21.4v14.7h-28.9Zm-7.1-7.2h7.1v7.2h-7.1v-7.2Zm0-43.1h7.1v7.1h-7.1v-7.1Zm14.6,14.6v6.7h6.7v-6.7h-6.7Zm14.3-14.6h7.1v7.1h-7.1v-7.1Z"/></g></g></svg>