<?xml version="1.0" encoding="UTF-8"?><svg id="Warstwa_2" xmlns="http://www.w3.org/2000/svg" viewBox="0 0 482.3 160.41"><defs><style>.cls-1{fill:#da5620;}.cls-2{fill:#db5721;}</style></defs><g id="Warstwa_1-2"><path class="cls-2" d="M.2,113.81v-19.8c0-5.1,.3-5.3,5.5-5.3,4.4,0,8.9-.2,13.3,.1,2.7,.2,3.2-.8,3.1-3.2-.2-4.9,0-9.8-.1-14.7-.1-2.9,1.2-4.1,4.1-4,5.1,.1,10.3-.1,15.4,.1,2,.1,2.5-.6,2.4-2.5-.1-5.2,.1-10.5-.1-15.7-.1-3.2,1.2-4.4,4.4-4.4,12.1,.1,24.2,0,36.3,.1,2.5,0,3.2-.6,3.2-3.2-.2-12.2-.1-24.3-.1-36.5C87.6,.61,88.1,.11,92.3,0,98.5,0,104.6,.11,110.8,0c3.1-.1,4.3,1.2,4.2,4.3-.1,5.3,0,10.7-.1,16,0,1.8,.5,2.3,2.3,2.3,5.2-.1,10.5,0,15.7-.1,2.7,0,3.9,1.1,3.9,3.9-.1,6.5-.1,13,0,19.5,0,3-1.3,4-4.1,4-12.2-.1-24.4,.1-36.6-.1-2.6,0-3.2,.7-3.1,3.2,.1,12.2,.1,24.3,.1,36.5,0,4.2-.5,4.7-4.8,4.7-4.9,0-9.8,.1-14.7,0-2-.1-2.5,.5-2.5,2.5,.1,5.3,0,10.7,.1,16,.1,2.9-1.1,4.1-4.1,4.1-5.1-.1-10.3,.1-15.4-.1-1.9,0-2.6,.5-2.5,2.4,.1,5.3,0,10.7,.1,16,0,2.9-1.1,4.1-4,4.1-13.8-.1-27.6-.1-41.4,0-2.8,0-3.9-1.2-3.9-3.9,.2-7.2,.2-14.3,.2-21.5Z"/><g><path class="cls-1" d="M147.4,139.01h-36V67.31h36v14.6h-21.4v13.9h21.4v14.6h-21.4v13.9h21.4v14.7Z"/><path class="cls-1" d="M154.1,139.01V67.31h14.6v21.4h14.2v7.1h7.1v36h-7.1v7.2h-28.8Zm14.7-14.7h6.7v-21h-6.7v21Zm14.2-35.6h7.1v7.1h-7.1v-7.1Zm0,43.1h7.1v7.2h-7.1v-7.2Z"/><path class="cls-1" d="M211.5,81.91h-14.6v-14.6h14.6v14.6Zm0,57.1h-14.6v-50.3h14.6v50.3Z"/><path class="cls-1" d="M225.4,139.01v-7.2h-7.1v-57.4h14.6v14.2h14.2v14.6h-14.2v21h14.2v14.7h-21.7v.1Zm-7.1-7.2h7.1v7.2h-7.1v-7.2Z"/><path class="cls-1" d="M261,139.01v-7.2h-7.1v-36h7.1v-7.1h21.8v7.1h7.1v21.8h-21.4v6.7h21.4v14.7h-28.9Zm-7.1-7.2h7.1v7.2h-7.1v-7.2Zm0-43.1h7.1v7.1h-7.1v-7.1Zm14.6,14.6v6.7h6.7v-6.7h-6.7Zm14.3-14.6h7.1v7.1h-7.1v-7.1Z"/><path class="cls-1" d="M311.3,139.01h-14.6v-50.3h28.9v7.1h7.1v43.2h-14.6v-35.7h-6.8v35.7Zm14.2-50.3h7.1v7.1h-7.1v-7.1Z"/><path class="cls-1" d="M368.3,160.41h-21.8v-14.6h14.2v-6.7h-14.2v-7.2h-7.1v-36h7.1v-7.1h28.9v64.6h-7.1v7Zm-28.9-28.6h7.1v7.2h-7.1v-7.2Zm0-43.1h7.1v7.1h-7.1v-7.1Zm.4,57h6.7v14.7h-6.7v-14.7Zm14.2-21.4h6.7v-21h-6.7v21Zm14.3,29h7.1v7.1h-7.1v-7.1Z"/><path class="cls-1" d="M396.8,81.91h-14.6v-14.6h14.6v14.6Zm0,57.1h-14.6v-50.3h14.6v50.3Z"/><path class="cls-1" d="M418.2,139.01h-14.6v-50.3h28.9v7.1h7.1v43.2h-14.6v-35.7h-6.7v35.7h-.1Zm14.2-50.3h7.1v7.1h-7.1v-7.1Z"/><path class="cls-1" d="M453.4,139.01v-7.2h-7.1v-36h7.1v-7.1h21.8v7.1h7.1v21.8h-21.4v6.7h21.4v14.7h-28.9Zm-7.1-7.2h7.1v7.2h-7.1v-7.2Zm0-43.1h7.1v7.1h-7.1v-7.1Zm14.6,14.6v6.7h6.7v-6.7h-6.7Zm14.3-14.6h7.1v7.1h-7.1v-7.1Z"/></g></g></svg>