<?xml version="1.0" encoding="utf-8"?>
<!-- Generator: Adobe Illustrator 26.3.1, SVG Export Plug-In . SVG Version: 6.00 Build 0)  -->
<svg version="1.1" id="Warstwa_1" xmlns="http://www.w3.org/2000/svg" xmlns:xlink="http://www.w3.org/1999/xlink" x="0px" y="0px"
	 viewBox="0 0 595.3 841.9" style="enable-background:new 0 0 595.3 841.9;" xml:space="preserve">
<style type="text/css">
	.st0{fill:#DB5721;stroke:#000000;stroke-miterlimit:10;}
	.st1{fill:#DA5620;stroke:#000000;stroke-miterlimit:10;}
</style>
<g>
	<g>
		<path class="st0" d="M76.9,481.4c0-6.6,0-13.2,0-19.8c0-5.1,0.3-5.3,5.5-5.3c4.4,0,8.9-0.2,13.3,0.1c2.7,0.2,3.2-0.8,3.1-3.2
			c-0.2-4.9,0-9.8-0.1-14.7c-0.1-2.9,1.2-4.1,4.1-4c5.1,0.1,10.3-0.1,15.4,0.1c2,0.1,2.5-0.6,2.4-2.5c-0.1-5.2,0.1-10.5-0.1-15.7
			c-0.1-3.2,1.2-4.4,4.4-4.4c12.1,0.1,24.2,0,36.3,0.1c2.5,0,3.2-0.6,3.2-3.2c-0.2-12.2-0.1-24.3-0.1-36.5c0-4.2,0.5-4.7,4.7-4.8
			c6.2,0,12.3,0.1,18.5,0c3.1-0.1,4.3,1.2,4.2,4.3c-0.1,5.3,0,10.7-0.1,16c0,1.8,0.5,2.3,2.3,2.3c5.2-0.1,10.5,0,15.7-0.1
			c2.7,0,3.9,1.1,3.9,3.9c-0.1,6.5-0.1,13,0,19.5c0,3-1.3,4-4.1,4c-12.2-0.1-24.4,0.1-36.6-0.1c-2.6,0-3.2,0.7-3.1,3.2
			c0.1,12.2,0.1,24.3,0.1,36.5c0,4.2-0.5,4.7-4.8,4.7c-4.9,0-9.8,0.1-14.7,0c-2-0.1-2.5,0.5-2.5,2.5c0.1,5.3,0,10.7,0.1,16
			c0.1,2.9-1.1,4.1-4.1,4.1c-5.1-0.1-10.3,0.1-15.4-0.1c-1.9,0-2.6,0.5-2.5,2.4c0.1,5.3,0,10.7,0.1,16c0,2.9-1.1,4.1-4,4.1
			c-13.8-0.1-27.6-0.1-41.4,0c-2.8,0-3.9-1.2-3.9-3.9C76.9,495.7,76.9,488.6,76.9,481.4z"/>
	</g>
</g>
<g>
	<path class="st1" d="M224.1,506.6h-36v-71.7h36v14.6h-21.4v13.9h21.4V478h-21.4v13.9h21.4V506.6z"/>
	<path class="st1" d="M230.8,506.6v-71.7h14.6v21.4h14.2l7.1,0l0,7.1v36l0,7.1l-7.1,0.1L230.8,506.6L230.8,506.6z M245.5,491.9h6.7
		v-21h-6.7V491.9z"/>
	<path class="st1" d="M288.2,449.5h-14.6v-14.6h14.6V449.5z M288.2,506.6h-14.6v-50.3h14.6V506.6z"/>
	<path class="st1" d="M295,506.5l0-7.1V442h14.6v14.2h14.2v14.6h-14.2v21h14.2v14.7h-21.7L295,506.5z"/>
	<path class="st1" d="M337.7,506.6l-7.2,0l0.1-7.2v-36l0-7.1l7.1,0h21.8l7.1,0l0,7.1v21.8h-21.4v6.7h21.4v14.7H337.7z M345.2,470.9
		v6.7h6.7v-6.7H345.2z"/>
	<path class="st1" d="M388,506.6h-14.6v-50.3h28.9l7.1,0l0,7.1v43.2h-14.6v-35.7H388V506.6z"/>
	<path class="st1" d="M445,528l-28.5,0.1v-14.6l20.9-0.1v-6.7h-14.2l-7.2,0l0.1-7.2v-36l0-7.1l7.1,0h28.9V521l-0.1,7L445,528z
		 M430.7,491.9h6.7v-21h-6.7V491.9z"/>
	<path class="st1" d="M473.5,449.5h-14.6v-14.6h14.6V449.5z M473.5,506.6h-14.6v-50.3h14.6V506.6z"/>
	<path class="st1" d="M494.9,506.6h-14.6v-50.3h28.9l7.2-0.1l-0.1,7.2v43.2h-14.6v-35.7H495L494.9,506.6L494.9,506.6z"/>
	<path class="st1" d="M530.1,506.6l-7.2,0l0.1-7.2v-36l0.1-7l7-0.1h21.8l7,0.1l0.1,7v21.8h-21.4v6.7H559v14.7H530.1z M537.6,470.9
		v6.7h6.7v-6.7H537.6z"/>
</g>
<g>
	<path class="st1" d="M238.4,417.7H231v-36.5h18.3v3.6h3.6v14.7h-3.6v3.6h-10.9L238.4,417.7L238.4,417.7z M238.4,388.6v7h7v-7H238.4
		z M249.3,384.8v-3.6"/>
	<path class="st1" d="M260.7,417.7V414h-3.6v-18.3h3.6v-3.6h11.1v3.6h3.6V414h-3.6v3.7H260.7z M264.6,410.2h3.4v-10.7h-3.4V410.2z"
		/>
	<path class="st1" d="M287.1,410.2h3.4v-18.1h7.5v18.1h3.4v-18.1h7.5v22h-3.6v3.7h-22V414h-3.6v-22h7.5L287.1,410.2L287.1,410.2z"/>
	<path class="st1" d="M316.7,417.7V414H313v-18.3h3.6v-3.6h11.1v3.6h3.6v11.1h-10.9v3.4h10.9v7.5H316.7z M320.5,399.5v3.4h3.4v-3.4
		H320.5z"/>
	<path class="st1" d="M343,417.7h-7.5v-25.6h14.7v7.5H343V417.7z"/>
	<path class="st1" d="M358.1,417.7V414h-3.6v-18.3h3.6v-3.6h11.1v3.6h3.6v11.1h-10.9v3.4h10.9v7.5H358.1z M358.1,395.7h-3.4
		 M361.9,399.5v3.4h3.4v-3.4H361.9z"/>
	<path class="st1" d="M380.6,417.7l-3.8,0.1l0.2-3.8v-18.3h3.6v-3.6h7.2v-10.9h7.5v36.5H380.6z M384.5,410.2h3.4v-10.7h-3.4V410.2z"
		/>
	<path class="st1" d="M411.2,417.7v-36.5h7.5v10.9h7.2l3.6,0l0,3.6V414h-3.6v3.7H411.2z M418.7,410.2h3.4v-10.7h-3.4V410.2z"/>
	<path class="st1" d="M448.5,428.5h-11.1V421h7.2v-3.4h-7.2V414h-3.6v-22h7.5v18.1h3.4V392h7.5v32.9h-3.6L448.5,428.5L448.5,428.5z"
		/>
</g>
</svg>
