<?xml version="1.0" encoding="utf-8"?>
<!-- Generator: Adobe Illustrator 26.3.1, SVG Export Plug-In . SVG Version: 6.00 Build 0)  -->
<svg version="1.1" id="Warstwa_2_00000051357591076232753770000005812908205053252503_"
	 xmlns="http://www.w3.org/2000/svg" xmlns:xlink="http://www.w3.org/1999/xlink" x="0px" y="0px" viewBox="0 0 488.3 93.2"
	 style="enable-background:new 0 0 488.3 93.2;" xml:space="preserve">
<style type="text/css">
	.st0{fill:#DB5721;}
	.st1{fill:#DA5620;}
</style>
<g id="Warstwa_1-2">
	<path class="st0" d="M0.2,76.4V63.1c0-3.1,0.3-3.3,3.5-3.4c3.1,0,6.1-0.1,9.2,0c1.8,0.1,2.1-0.5,2.1-2.2c-0.1-3.4,0-6.9-0.1-10.3
		c0-2,0.8-2.7,2.8-2.7c3.4,0.1,6.9,0,10.3,0c1.3,0,1.7-0.4,1.6-1.7c-0.1-3.4,0-6.7-0.1-10.1c-0.1-2.2,0.8-3,3-3
		c8.1,0.1,16.2,0,24.3,0.1c1.7,0,2.2-0.4,2.1-2.1c-0.1-8.2,0-16.4,0-24.5C58.9,0.4,59.2,0,62,0c4.1,0,8.2,0.1,12.4,0
		c2.1,0,2.9,0.8,2.8,2.9c-0.1,3.4,0,6.9-0.1,10.3c0,1.2,0.4,1.6,1.6,1.5c3.5-0.1,7,0,10.5,0c1.8,0,2.6,0.8,2.6,2.6
		c0,4.5-0.1,9,0,13.5c0,2-0.9,2.7-2.8,2.7c-8.2,0-16.3,0-24.5-0.1c-1.8,0-2.1,0.5-2.1,2.2c0.1,8.2,0,16.4,0,24.5
		c0,2.8-0.4,3.1-3.2,3.2c-3.3,0-6.6,0.1-9.8,0c-1.3,0-1.7,0.4-1.7,1.7c0.1,3.6,0,7.2,0,10.8c0,1.9-0.8,2.8-2.7,2.7
		c-3.4-0.1-6.9,0-10.3,0c-1.3,0-1.7,0.3-1.7,1.6c0.1,3.4,0,6.9,0,10.3c0,1.9-0.7,2.8-2.7,2.8H2.6c-1.8,0-2.6-0.8-2.6-2.6
		C0.2,85.9,0.2,81.2,0.2,76.4z"/>
	<g>
		<path class="st1" d="M153.4,71.7h-36V0h36v14.6H132v13.9h21.4v14.6H132V57h21.4V71.7z"/>
		<path class="st1" d="M160.1,71.7V0h14.6v21.4h14.2l7,0.1l0.1,7v36l0.1,7.2l-7.2,0H160.1z M174.8,57h6.7V36h-6.7V57z"/>
		<path class="st1" d="M217.5,14.6h-14.6V0h14.6V14.6z M217.5,71.7h-14.6V21.4h14.6V71.7z"/>
		<path class="st1" d="M231.4,71.7v-7.2h-7.1V7.1h14.6v14.2h14.2v14.6h-14.2v21h14.2v14.7L231.4,71.7L231.4,71.7z M224.3,64.5h7.1
			v7.2h-7.1V64.5z"/>
		<path class="st1" d="M267,71.7v-7.2h-7.1v-36l0.1-7l7-0.1h21.8l7,0.1l0.1,7v21.8h-21.4V57h21.4v14.7H267z M259.9,64.5h7.1v7.2
			h-7.1V64.5z M274.5,36v6.7h6.7V36H274.5z"/>
		<path class="st1" d="M317.3,71.7h-14.6V21.4h28.9v7.1h7.1v43.2h-14.6V36h-6.8V71.7z M331.5,21.4l7.2,0l0,7.1l-7.2,0V21.4z"/>
		<path class="st1" d="M374.3,93.1h-21.8V78.5h14.2v-6.7h-14.2v-7.2h-7.1v-36h7.1v-7.1h28.9v64.6h-7.1V93.1z M345.4,64.5h7.1v7.2
			h-7.1V64.5z M345.4,21.5l7.1,0l0,7.1l-7.1,0L345.4,21.5z M345.8,78.4h6.7v14.7h-6.7V78.4z M360,57h6.7V36H360V57z M374.3,86h7.1
			v7.1h-7.1V86z"/>
		<path class="st1" d="M402.8,14.6h-14.6V0h14.6V14.6z M402.8,71.7h-14.6V21.4h14.6V71.7z"/>
		<path class="st1" d="M424.2,71.7h-14.6V21.4h28.9l7.1,0l0,7.1v43.2H431V36h-6.7L424.2,71.7L424.2,71.7L424.2,71.7z"/>
		<path class="st1" d="M459.4,71.7v-7.2h-7.1v-36h7.1v-7.1h21.8v7.1h7.1v21.8h-21.4V57h21.4v14.7H459.4z M452.3,64.5h7.1v7.2h-7.1
			V64.5z M452.3,21.4h7.1v7.1h-7.1V21.4z M466.9,36v6.7h6.7V36H466.9z M481.2,21.4h7.1v7.1h-7.1V21.4z"/>
	</g>
</g>
</svg>
