<?xml version="1.0" encoding="UTF-8"?>
<svg width="200px" height="220px" viewBox="0 0 200 220" version="1.1" xmlns="http://www.w3.org/2000/svg" xmlns:xlink="http://www.w3.org/1999/xlink">
    <!-- Generator: Sketch 46.2 (44496) - http://www.bohemiancoding.com/sketch -->
    <title>Regular</title>
    <desc>Created with Sketch.</desc>
    <defs>
        <path d="M0,0 L19.2,0 L19.2,1.52 L1.76,1.52 L1.76,12.96 L18.16,12.96 L18.16,14.48 L1.76,14.48 L1.76,27.04 L19.4,27.04 L19.4,28.56 L0,28.56 L0,0 Z M26.4,0 L37.84,0 C39.5466752,0 40.9733276,0.2133312 42.12,0.64 C43.2666724,1.0666688 44.1866632,1.6266632 44.88,2.32 C45.5733368,3.0133368 46.0733318,3.8066622 46.38,4.7 C46.6866682,5.5933378 46.84,6.4933288 46.84,7.4 C46.84,8.1733372 46.706668,8.9066632 46.44,9.6 C46.173332,10.2933368 45.7933358,10.906664 45.3,11.44 C44.8066642,11.973336 44.2200034,12.4199982 43.54,12.78 C42.8599966,13.1400018 42.1066708,13.3733328 41.28,13.48 L41.36,13.56 C41.5466676,13.5333332 41.9866632,13.6133324 42.68,13.8 C43.3733368,13.9866676 44.0999962,14.3399974 44.86,14.86 C45.6200038,15.3800026 46.299997,16.0999954 46.9,17.02 C47.500003,17.9400046 47.8,19.1199928 47.8,20.56 C47.8,21.8666732 47.5600024,23.0133284 47.08,24 C46.5999976,24.9866716 45.926671,25.8199966 45.06,26.5 C44.193329,27.1800034 43.1466728,27.6933316 41.92,28.04 C40.6933272,28.3866684 39.3333408,28.56 37.84,28.56 L26.4,28.56 L26.4,0 Z M37.84,12.96 C40.2666788,12.96 42.079994,12.4200054 43.28,11.34 C44.480006,10.2599946 45.08,8.8400088 45.08,7.08 C45.08,6.0399948 44.880002,5.1666702 44.48,4.46 C44.079998,3.7533298 43.54667,3.1800022 42.88,2.74 C42.21333,2.2999978 41.446671,1.9866676 40.58,1.8 C39.713329,1.6133324 38.8000048,1.52 37.84,1.52 L28.16,1.52 L28.16,12.96 L37.84,12.96 Z M37.84,27.04 C40.4000128,27.04 42.4066594,26.5000054 43.86,25.42 C45.3133406,24.3399946 46.04,22.7200108 46.04,20.56 C46.04,19.3333272 45.7866692,18.3266706 45.28,17.54 C44.7733308,16.7533294 44.1266706,16.1333356 43.34,15.68 C42.5533294,15.2266644 41.6733382,14.9133342 40.7,14.74 C39.7266618,14.5666658 38.773338,14.48 37.84,14.48 L28.16,14.48 L28.16,27.04 L37.84,27.04 Z M55.6,0 L57.36,0 L57.36,28.56 L55.6,28.56 L55.6,0 Z M63.32,1.52 L63.32,0 L85.2,0 L85.2,1.52 L75.12,1.52 L75.12,28.56 L73.36,28.56 L73.36,1.52 L63.32,1.52 Z M91.16,0 L110.36,0 L110.36,1.52 L92.92,1.52 L92.92,12.96 L109.32,12.96 L109.32,14.48 L92.92,14.48 L92.92,27.04 L110.56,27.04 L110.56,28.56 L91.16,28.56 L91.16,0 Z M117.56,0 L119.76,0 L137.8,26.2 L137.88,26.2 L137.88,0 L139.64,0 L139.64,28.56 L137.56,28.56 L119.4,2.16 L119.32,2.16 L119.32,28.56 L117.56,28.56 L117.56,0 Z" id="path-1"></path>
    </defs>
    <g id="Logo" stroke="none" stroke-width="1" fill="none" fill-rule="evenodd">
        <g id="Regular">
            <g id="Tenpura-with-Text" transform="translate(30.000000, 20.000000)">
                <g id="Tempura" transform="translate(10.000000, 0.000000)" fill-rule="evenodd" stroke-width="5" stroke-linejoin="round">
                    <polygon id="Red" stroke="#DD664F" fill="#DD664F" points="80 0 80 40 120 40 120 20 100 20 100 0"></polygon>
                    <rect id="Yellow1" stroke="#FFDB33" fill="#FFDB33" x="40" y="40" width="40" height="40"></rect>
                    <rect id="Yellow2" stroke="#FACB37" fill="#FACB37" x="20" y="60" width="40" height="40"></rect>
                    <rect id="Yellow3" stroke="#F5BA3B" fill="#F5BA3B" x="0" y="80" width="40" height="40"></rect>
                </g>
                <g id="Text" transform="translate(0.000000, 151.000000)">
                    <mask id="mask-2" fill="white">
                        <use xlink:href="#path-1"></use>
                    </mask>
                    <use stroke="#657378" stroke-width="2" fill="#657378" fill-rule="evenodd" stroke-linejoin="round" xlink:href="#path-1"></use>
                </g>
            </g>
        </g>
    </g>
</svg>